<mxfile host="app.diagrams.net" agent="Mozilla/5.0 (Macintosh; Intel Mac OS X 10_15_7) AppleWebKit/537.36 (KHTML, like Gecko) Chrome/134.0.0.0 Safari/537.36" version="27.0.3">
  <diagram name="Page-1" id="2F7bEpvjVPYpANVX8aP-">
    <mxGraphModel dx="2129" dy="874" grid="1" gridSize="10" guides="1" tooltips="1" connect="1" arrows="1" fold="1" page="1" pageScale="1" pageWidth="850" pageHeight="1100" math="0" shadow="0">
      <root>
        <mxCell id="0" />
        <mxCell id="1" parent="0" />
        <mxCell id="UtJhcli4aMO5PLbWu5us-3" style="edgeStyle=orthogonalEdgeStyle;rounded=0;orthogonalLoop=1;jettySize=auto;html=1;exitX=1;exitY=0.5;exitDx=0;exitDy=0;" edge="1" parent="1" source="UtJhcli4aMO5PLbWu5us-1" target="UtJhcli4aMO5PLbWu5us-2">
          <mxGeometry relative="1" as="geometry" />
        </mxCell>
        <mxCell id="UtJhcli4aMO5PLbWu5us-1" value="Java Class" style="rounded=0;whiteSpace=wrap;html=1;fillColor=#fff2cc;strokeColor=#d6b656;" vertex="1" parent="1">
          <mxGeometry x="40" y="80" width="150" height="50" as="geometry" />
        </mxCell>
        <mxCell id="UtJhcli4aMO5PLbWu5us-2" value="ClassLoader" style="rounded=0;whiteSpace=wrap;html=1;fillColor=#fff2cc;strokeColor=#d6b656;" vertex="1" parent="1">
          <mxGeometry x="300" y="80" width="150" height="50" as="geometry" />
        </mxCell>
        <mxCell id="UtJhcli4aMO5PLbWu5us-4" value="" style="rounded=0;whiteSpace=wrap;html=1;fillColor=#dae8fc;strokeColor=#6c8ebf;" vertex="1" parent="1">
          <mxGeometry x="40" y="170" width="770" height="190" as="geometry" />
        </mxCell>
        <mxCell id="UtJhcli4aMO5PLbWu5us-5" value="Java 内存结构" style="text;html=1;align=center;verticalAlign=middle;whiteSpace=wrap;rounded=0;" vertex="1" parent="1">
          <mxGeometry x="50" y="180" width="100" height="30" as="geometry" />
        </mxCell>
        <mxCell id="UtJhcli4aMO5PLbWu5us-6" value="Method Aread&lt;br&gt;方法区" style="rounded=0;whiteSpace=wrap;html=1;fillColor=#fff2cc;strokeColor=#d6b656;" vertex="1" parent="1">
          <mxGeometry x="50" y="230" width="120" height="80" as="geometry" />
        </mxCell>
        <mxCell id="UtJhcli4aMO5PLbWu5us-7" value="Heap&lt;br&gt;堆" style="rounded=0;whiteSpace=wrap;html=1;fillColor=#fff2cc;strokeColor=#d6b656;" vertex="1" parent="1">
          <mxGeometry x="210" y="230" width="120" height="80" as="geometry" />
        </mxCell>
        <mxCell id="UtJhcli4aMO5PLbWu5us-8" value="JVM Stack&lt;br&gt;虚拟机栈" style="rounded=0;whiteSpace=wrap;html=1;fillColor=#fff2cc;strokeColor=#d6b656;" vertex="1" parent="1">
          <mxGeometry x="360" y="230" width="120" height="80" as="geometry" />
        </mxCell>
        <mxCell id="UtJhcli4aMO5PLbWu5us-9" value="PC Register&lt;br&gt;程序计数器" style="rounded=0;whiteSpace=wrap;html=1;fillColor=#fff2cc;strokeColor=#d6b656;" vertex="1" parent="1">
          <mxGeometry x="510" y="230" width="120" height="80" as="geometry" />
        </mxCell>
        <mxCell id="UtJhcli4aMO5PLbWu5us-10" value="Native Stack&lt;br&gt;本地方法栈" style="rounded=0;whiteSpace=wrap;html=1;fillColor=#fff2cc;strokeColor=#d6b656;" vertex="1" parent="1">
          <mxGeometry x="660" y="230" width="120" height="80" as="geometry" />
        </mxCell>
        <mxCell id="UtJhcli4aMO5PLbWu5us-12" style="edgeStyle=orthogonalEdgeStyle;rounded=0;orthogonalLoop=1;jettySize=auto;html=1;exitX=0.5;exitY=1;exitDx=0;exitDy=0;entryX=0.5;entryY=0;entryDx=0;entryDy=0;" edge="1" parent="1" source="UtJhcli4aMO5PLbWu5us-2" target="UtJhcli4aMO5PLbWu5us-4">
          <mxGeometry relative="1" as="geometry" />
        </mxCell>
        <mxCell id="UtJhcli4aMO5PLbWu5us-13" value="" style="rounded=0;whiteSpace=wrap;html=1;fillColor=#dae8fc;strokeColor=#6c8ebf;" vertex="1" parent="1">
          <mxGeometry x="40" y="430" width="510" height="190" as="geometry" />
        </mxCell>
        <mxCell id="UtJhcli4aMO5PLbWu5us-14" value="执行引擎" style="text;html=1;align=center;verticalAlign=middle;whiteSpace=wrap;rounded=0;" vertex="1" parent="1">
          <mxGeometry x="50" y="440" width="60" height="30" as="geometry" />
        </mxCell>
        <mxCell id="UtJhcli4aMO5PLbWu5us-15" value="Interpreter&lt;br&gt;解释器" style="rounded=0;whiteSpace=wrap;html=1;fillColor=#fff2cc;strokeColor=#d6b656;" vertex="1" parent="1">
          <mxGeometry x="55" y="490" width="120" height="80" as="geometry" />
        </mxCell>
        <mxCell id="UtJhcli4aMO5PLbWu5us-16" value="JIT Compiler&lt;br&gt;即时编译器" style="rounded=0;whiteSpace=wrap;html=1;fillColor=#fff2cc;strokeColor=#d6b656;" vertex="1" parent="1">
          <mxGeometry x="230" y="490" width="120" height="80" as="geometry" />
        </mxCell>
        <mxCell id="UtJhcli4aMO5PLbWu5us-17" value="GC&lt;br&gt;垃圾回收" style="rounded=0;whiteSpace=wrap;html=1;fillColor=#fff2cc;strokeColor=#d6b656;" vertex="1" parent="1">
          <mxGeometry x="410" y="490" width="120" height="80" as="geometry" />
        </mxCell>
        <mxCell id="UtJhcli4aMO5PLbWu5us-20" style="edgeStyle=orthogonalEdgeStyle;rounded=0;orthogonalLoop=1;jettySize=auto;html=1;exitX=0.5;exitY=0;exitDx=0;exitDy=0;entryX=0.331;entryY=0.995;entryDx=0;entryDy=0;entryPerimeter=0;startArrow=classic;startFill=1;" edge="1" parent="1" source="UtJhcli4aMO5PLbWu5us-13" target="UtJhcli4aMO5PLbWu5us-4">
          <mxGeometry relative="1" as="geometry" />
        </mxCell>
        <mxCell id="UtJhcli4aMO5PLbWu5us-22" style="edgeStyle=orthogonalEdgeStyle;rounded=0;orthogonalLoop=1;jettySize=auto;html=1;entryX=1;entryY=0.5;entryDx=0;entryDy=0;startArrow=classic;startFill=1;" edge="1" parent="1" source="UtJhcli4aMO5PLbWu5us-21" target="UtJhcli4aMO5PLbWu5us-13">
          <mxGeometry relative="1" as="geometry" />
        </mxCell>
        <mxCell id="UtJhcli4aMO5PLbWu5us-21" value="本地方法接口" style="rounded=0;whiteSpace=wrap;html=1;fillColor=#fff2cc;strokeColor=#d6b656;" vertex="1" parent="1">
          <mxGeometry x="610" y="485" width="220" height="80" as="geometry" />
        </mxCell>
        <mxCell id="UtJhcli4aMO5PLbWu5us-23" style="edgeStyle=orthogonalEdgeStyle;rounded=0;orthogonalLoop=1;jettySize=auto;html=1;exitX=0.5;exitY=0;exitDx=0;exitDy=0;entryX=0.883;entryY=1.005;entryDx=0;entryDy=0;entryPerimeter=0;startArrow=classic;startFill=1;" edge="1" parent="1" source="UtJhcli4aMO5PLbWu5us-21" target="UtJhcli4aMO5PLbWu5us-4">
          <mxGeometry relative="1" as="geometry" />
        </mxCell>
      </root>
    </mxGraphModel>
  </diagram>
</mxfile>
